#!OML:ASF H:\Dans Jumps\Project 1\Capture day 1\Session 1\subject.ASF
:FULLY-SPECIFIED
:DEGREES
532
root 0.15563 17.7753 -6.32457 7.44812 -0.447694 -1.31758
lowerback -1.04364 0.29392 -0.164805
upperback 4.23189 0.340935 1.3431
thorax 4.94333 0.132625 1.49911
lowerneck -11.3295 0.608902 -1.51714
upperneck 37.7015 1.01298 0.893341
head 14.9864 0.341649 0.805749
rclavicle 4.82053e-015 1.59028e-014
rhumerus -32.9524 -27.3262 -66.6642
rradius 20.6335
rwrist 44.8667
rhand -16.0795 -25.5603
rfingers 7.12502
rthumb 10.1235 -55.2967
lclavicle 4.82053e-015 1.59028e-014
lhumerus -26.2528 17.5906 70.8966
lradius 12.0167
lwrist -15.2628
lhand -24.292 -1.79693
lfingers 7.12502
lthumb 2.19537 28.1715
rfemur -16.076 -2.40124 20.3387
rtibia 21.3054
rfoot -12.1144 -2.46201
rtoes 15.8871
lfemur -14.1734 6.34842 -19.019
ltibia 17.8076
lfoot -9.04498 7.68598
ltoes 8.31452
533
root 0.15436 17.7756 -6.32249 7.46014 -0.434442 -1.30865
lowerback -1.04756 0.292463 -0.170746
upperback 4.23958 0.338886 1.34834
thorax 4.95364 0.131174 1.50787
lowerneck -11.3238 0.615259 -1.51319
upperneck 37.7003 1.01577 0.908041
head 14.9843 0.345477 0.811597
rclavicle 3.08116e-015 9.14409e-015
rhumerus -33.1752 -27.7137 -66.1577
rradius 20.5756
rwrist 45.1033
rhand -16.1538 -25.7027
rfingers 7.12502
rthumb 10.0518 -55.4426
lclavicle 3.08116e-015 9.14409e-015
lhumerus -26.4402 17.8711 70.3909
lradius 12.0069
lwrist -15.4091
lhand -24.2858 -1.69805
lfingers 7.12502
lthumb 2.20135 28.2703
rfemur -16.0801 -2.39998 20.3331
rtibia 21.3069
rfoot -12.1233 -2.47555
rtoes 15.9051
lfemur -14.1664 6.349 -19.0257
ltibia 17.7801
lfoot -9.04017 7.67522
ltoes 8.3084
534
root 0.15322 17.7761 -6.3207 7.47226 -0.423392 -1.29846
lowerback -1.05225 0.290901 -0.178574
upperback 4.2458 0.336759 1.35402
thorax 4.96283 0.129608 1.51812
lowerneck -11.3212 0.617576 -1.50755
upperneck 37.7046 1.01486 0.91532
head 14.9858 0.346909 0.813545
rclavicle -6.11263e-015 -1.49089e-014
rhumerus -33.3568 -28.0775 -65.6918
rradius 20.5117
rwrist 45.3308
rhand -16.2298 -25.8405
rfingers 7.12502
rthumb 9.97845 -55.584
lclavicle -6.11263e-015 -1.49089e-014
lhumerus -26.5885 18.1001 69.9438
lradius 11.9974
lwrist -15.5261
lhand -24.2713 -1.60628
lfingers 7.12502
lthumb 2.21537 28.362
rfemur -16.0852 -2.39907 20.3254
rtibia 21.3076
rfoot -12.1316 -2.48754
rtoes 15.9254
lfemur -14.1596 6.35105 -19.0347
ltibia 17.7515
lfoot -9.03432 7.66519
ltoes 8.29494
535
root 0.152179 17.7764 -6.31928 7.48408 -0.414294 -1.28845
lowerback -1.05666 0.290134 -0.186092
upperback 4.25158 0.335695 1.35954
thorax 4.97138 0.128589 1.52809
lowerneck -11.3221 0.614019 -1.50222
upperneck 37.7129 1.00734 0.917148
head 14.9901 0.344718 0.812312
rclavicle 3.47873e-016 9.93923e-016
rhumerus -33.4959 -28.3778 -65.2912
rradius 20.4639
rwrist 45.4995
rhand -16.3043 -25.9773
rfingers 7.12502
rthumb 9.90657 -55.7242
lclavicle 3.47873e-016 9.93923e-016
lhumerus -26.6949 18.2733 69.5593
lradius 11.9925
lwrist -15.6043
lhand -24.2497 -1.52746
lfingers 7.12502
lthumb 2.23624 28.4406
rfemur -16.0915 -2.39691 20.3175
rtibia 21.3077
rfoot -12.137 -2.49955
rtoes 15.9357
lfemur -14.1546 6.35409 -19.0437
ltibia 17.7249
lfoot -9.0301 7.65523
ltoes 8.29578
536
root 0.151229 17.7768 -6.31817 7.49664 -0.405318 -1.27825
lowerback -1.06434 0.289971 -0.193138
upperback 4.25839 0.335407 1.36472
thorax 4.98286 0.127962 1.53751
lowerneck -11.3282 0.604608 -1.49833
upperneck 37.723 0.992607 0.916127
head 14.9968 0.338857 0.809084
rclavicle 4.96962e-015 1.39149e-015
rhumerus -33.5935 -28.6523 -64.9404
rradius 20.4229
rwrist 45.6469
rhand -16.3607 -26.0905
rfingers 7.12502
rthumb 9.85214 -55.84
lclavicle 4.96962e-015 1.39149e-015
lhumerus -26.7549 18.4075 69.2342
lradius 11.9852
lwrist -15.6625
lhand -24.2363 -1.46665
lfingers 7.12502
lthumb 2.24916 28.5012
rfemur -16.1002 -2.39936 20.3095
rtibia 21.3089
rfoot -12.1413 -2.50796
rtoes 15.9362
lfemur -14.152 6.35764 -19.0533
ltibia 17.7003
lfoot -9.02747 7.64271
ltoes 8.30376
537
root 0.150254 17.7771 -6.31751 7.50905 -0.397683 -1.27043
lowerback -1.07211 0.29161 -0.197612
upperback 4.2654 0.337445 1.36958
thorax 4.99454 0.128597 1.54529
lowerneck -11.3438 0.591822 -1.49429
upperneck 37.7408 0.973158 0.914757
head 15.0096 0.330905 0.805115
rclavicle 1.88845e-015 -3.18055e-015
rhumerus -33.6508 -28.9003 -64.6421
rradius 20.3917
rwrist 45.7705
rhand -16.3976 -26.1801
rfingers 7.12502
rthumb 9.81657 -55.9313
lclavicle 1.88845e-015 -3.18055e-015
lhumerus -26.7697 18.494 68.9718
lradius 11.9798
lwrist -15.6874
lhand -24.2394 -1.44672
lfingers 7.12502
lthumb 2.24612 28.5212
rfemur -16.1115 -2.39886 20.3043
rtibia 21.3117
rfoot -12.1449 -2.5184
rtoes 15.9254
lfemur -14.1527 6.36354 -19.06
ltibia 17.6787
lfoot -9.02497 7.62771
ltoes 8.31934
538
root 0.149401 17.7773 -6.31713 7.52103 -0.389006 -1.26018
lowerback -1.08117 0.294036 -0.202024
upperback 4.27241 0.340618 1.3723
thorax 5.00694 0.129843 1.5509
lowerneck -11.3613 0.578713 -1.48921
upperneck 37.7612 0.95308 0.91329
head 15.0241 0.322819 0.800862
rclavicle -6.60959e-015 -2.06736e-014
rhumerus -33.6714 -29.1311 -64.392
rradius 20.3695
rwrist 45.8853
rhand -16.4205 -26.2375
rfingers 7.12502
rthumb 9.79443 -55.9897
lclavicle -6.60959e-015 -2.06736e-014
lhumerus -26.7462 18.5298 68.7723
lradius 11.9841
lwrist -15.6769
lhand -24.2654 -1.46623
lfingers 7.12502
lthumb 2.22107 28.502
rfemur -16.1243 -2.40348 20.2965
rtibia 21.3168
rfoot -12.1497 -2.52619
rtoes 15.9073
lfemur -14.1554 6.36826 -19.0696
ltibia 17.6596
lfoot -9.02375 7.61119
ltoes 8.34237
539
root 0.1486 17.7775 -6.31703 7.53024 -0.382313 -1.25023
lowerback -1.08735 0.297557 -0.205647
upperback 4.2791 0.345275 1.3743
thorax 5.01732 0.131885 1.55536
lowerneck -11.3784 0.567605 -1.48643
upperneck 37.7826 0.935612 0.914711
head 15.0389 0.315909 0.798644
rclavicle -5.1684e-015 -1.31198e-014
rhumerus -33.6556 -29.3749 -64.1764
rradius 20.3427
rwrist 46.0287
rhand -16.4278 -26.2853
rfingers 7.12502
rthumb 9.78744 -56.0378
lclavicle -5.1684e-015 -1.31198e-014
lhumerus -26.6888 18.5274 68.6312
lradius 11.9994
lwrist -15.6393
lhand -24.3039 -1.49503
lfingers 7.12502
lthumb 2.18385 28.4735
rfemur -16.1369 -2.40733 20.289
rtibia 21.3244
rfoot -12.155 -2.53378
rtoes 15.8938
lfemur -14.1574 6.37486 -19.0791
ltibia 17.6429
lfoot -9.02187 7.59459
ltoes 8.35683
540
root 0.147819 17.7776 -6.31721 7.53724 -0.377178 -1.23958
lowerback -1.09294 0.302619 -0.209378
upperback 4.28591 0.352047 1.3752
thorax 5.02743 0.134998 1.55887
lowerneck -11.3967 0.558245 -1.48248
upperneck 37.8056 0.920077 0.917354
head 15.0547 0.310158 0.797062
rclavicle -1.19271e-015 1.98785e-015
rhumerus -33.6036 -29.6222 -64.0007
rradius 20.3139
rwrist 46.1841
rhand -16.4391 -26.3175
rfingers 7.12502
rthumb 9.77657 -56.0706
lclavicle -1.19271e-015 1.98785e-015
lhumerus -26.5964 18.4862 68.5491
lradius 12.0252
lwrist -15.5718
lhand -24.3591 -1.53598
lfingers 7.12502
lthumb 2.1305 28.4331
rfemur -16.1501 -2.40802 20.2806
rtibia 21.3353
rfoot -12.1618 -2.54452
rtoes 15.8619
lfemur -14.1584 6.38358 -19.0894
ltibia 17.6265
lfoot -9.0189 7.57738
ltoes 8.36684
